<?xml version="1.0" encoding="UTF-8"?>
<svg id="Header-Banner" xmlns="http://www.w3.org/2000/svg" xmlns:xlink="http://www.w3.org/1999/xlink" viewBox="0 0 986.32 181.16">
  <defs>
    <style>
      .cls-1 {
        fill: #fff;
      }

      .cls-2 {
        fill: url(#linear-gradient);
      }
    </style>
    <linearGradient id="linear-gradient" x1="26.84" y1="90.58" x2="247.66" y2="90.58" gradientUnits="userSpaceOnUse">
      <stop offset="0" stop-color="#c8802a"/>
      <stop offset=".5" stop-color="#ffcd6f"/>
      <stop offset="1" stop-color="#c8802a"/>
    </linearGradient>
  </defs>
  <g>
    <path class="cls-1" d="M232.33,131.33l35.97-81.49h22.7l36.09,81.49h-23.98l-28.17-70.2h9.08l-28.17,70.2h-23.52ZM252.01,115.38l5.94-16.88h39.82l5.94,16.88h-51.69Z"/>
    <path class="cls-1" d="M333.73,131.33V49.83h63.8v17.93h-41.1v45.64h42.61v17.93h-65.31ZM354.8,98.5v-17.11h37.84v17.11h-37.84Z"/>
    <path class="cls-1" d="M429.2,131.33v-63.21h-25.03v-18.28h72.99v18.28h-24.91v63.21h-23.05Z"/>
    <path class="cls-1" d="M485.89,131.33V49.83h23.05v81.49h-23.05ZM507.2,99.55v-19.09h34.69v19.09h-34.69ZM540.26,131.33V49.83h23.05v81.49h-23.05Z"/>
    <path class="cls-1" d="M579.73,131.33V49.83h63.8v17.93h-41.1v45.64h42.61v17.93h-65.31ZM600.8,98.5v-17.11h37.84v17.11h-37.84Z"/>
    <path class="cls-1" d="M657.96,131.33V49.83h36.32c11.95,0,21.11,2.68,27.47,8.03,6.36,5.36,9.55,12.69,9.55,22,0,6.29-1.45,11.64-4.37,16.07-2.91,4.42-7.08,7.82-12.51,10.19-5.43,2.37-11.87,3.55-19.33,3.55h-24.45l10.36-9.78v31.43h-23.05ZM681.01,102.57l-10.36-10.71h23.05c4.81,0,8.42-1.05,10.83-3.14,2.4-2.1,3.61-5.04,3.61-8.85s-1.2-6.54-3.61-8.67c-2.41-2.13-6.02-3.2-10.83-3.2h-23.05l10.36-10.6v45.17ZM708.25,131.33l-20.26-29.69h24.56l20.37,29.69h-24.68Z"/>
    <path class="cls-1" d="M744.11,131.33V49.83h23.05v81.49h-23.05Z"/>
    <path class="cls-1" d="M824.55,132.96c-6.44,0-12.44-1.05-17.99-3.14-5.55-2.1-10.34-5.06-14.38-8.91-4.04-3.84-7.2-8.34-9.49-13.5-2.29-5.16-3.43-10.81-3.43-16.94s1.14-11.64,3.43-16.77c2.29-5.12,5.45-9.6,9.49-13.45,4.04-3.84,8.81-6.81,14.32-8.91,5.51-2.1,11.53-3.14,18.05-3.14s12.53,1.05,18.04,3.14c5.51,2.1,10.28,5.05,14.32,8.85,4.04,3.8,7.2,8.27,9.49,13.39,2.29,5.12,3.43,10.75,3.43,16.88s-1.13,11.89-3.38,17.05c-2.25,5.16-5.41,9.65-9.49,13.45-4.07,3.8-8.87,6.75-14.38,8.85-5.51,2.1-11.53,3.14-18.04,3.14ZM824.55,113.86c3.1,0,6-.54,8.67-1.63,2.68-1.09,5.01-2.66,6.98-4.72,1.98-2.06,3.53-4.5,4.66-7.33,1.12-2.83,1.69-6.03,1.69-9.6s-.56-6.77-1.69-9.6c-1.13-2.83-2.68-5.28-4.66-7.33-1.98-2.05-4.31-3.63-6.98-4.71-2.68-1.09-5.57-1.63-8.67-1.63s-6,.54-8.67,1.63c-2.68,1.09-5.03,2.66-7.04,4.71-2.02,2.06-3.57,4.5-4.66,7.33-1.09,2.83-1.63,6.04-1.63,9.6s.54,6.77,1.63,9.6c1.09,2.83,2.64,5.28,4.66,7.33,2.02,2.06,4.37,3.63,7.04,4.72,2.68,1.09,5.57,1.63,8.67,1.63Z"/>
    <path class="cls-1" d="M882.06,131.33V49.83h18.98l44.82,54.25h-8.96v-54.25h22.58v81.49h-18.98l-44.94-54.25h8.96v54.25h-22.47Z"/>
  </g>
  <path class="cls-2" d="M232.68,45.89l14.97-27.25-71.21,33.16,13.98-43.02-18.94,8.82-9,27.7-25.24-11.75-25.24,11.75-9.01-27.7-18.94-8.82,13.99,43.03L26.84,18.64l14.97,27.25,64,29.81,7.01,21.55-57.51-26.78,14.97,27.25,45.19,21.05-17.22,8.02,38.99,45.61,38.99-45.61-17.21-8.02,45.19-21.05,14.97-27.25-57.51,26.78,7-21.55,64-29.81ZM137.25,122.94l-20.26-62.31,20.26-9.51,20.26,9.51-20.26,62.31Z"/>
</svg>