<?xml version="1.0" encoding="UTF-8"?>
<svg id="Layer_1" data-name="Layer 1" xmlns="http://www.w3.org/2000/svg" xmlns:xlink="http://www.w3.org/1999/xlink" viewBox="0 0 1920 1080">
  <defs>
    <style>
      .cls-1 {
        fill: url(#linear-gradient-11);
      }

      .cls-1, .cls-2, .cls-3, .cls-4, .cls-5, .cls-6, .cls-7, .cls-8, .cls-9, .cls-10, .cls-11, .cls-12, .cls-13, .cls-14, .cls-15, .cls-16, .cls-17 {
        stroke: #000;
        stroke-miterlimit: 10;
        stroke-width: 2px;
      }

      .cls-2 {
        fill: url(#linear-gradient-9);
      }

      .cls-18 {
        fill: url(#linear-gradient-20);
        filter: url(#outer-glow-6);
      }

      .cls-19 {
        filter: url(#drop-shadow-2);
      }

      .cls-3 {
        fill: url(#linear-gradient-3);
      }

      .cls-20 {
        fill: #111525;
      }

      .cls-4 {
        fill: url(#linear-gradient-4);
      }

      .cls-21 {
        filter: url(#drop-shadow-12);
      }

      .cls-21, .cls-22 {
        fill: #ffb300;
      }

      .cls-5 {
        fill: url(#linear-gradient-13);
      }

      .cls-23 {
        fill: url(#linear-gradient-22);
        filter: url(#outer-glow-8);
      }

      .cls-6 {
        fill: url(#linear-gradient-5);
      }

      .cls-7 {
        fill: url(#linear-gradient-15);
      }

      .cls-24 {
        fill: url(#linear-gradient-19);
        filter: url(#outer-glow-5);
      }

      .cls-25 {
        filter: url(#drop-shadow-1);
      }

      .cls-8 {
        fill: url(#linear-gradient-2);
      }

      .cls-9 {
        fill: url(#linear-gradient-8);
      }

      .cls-26 {
        fill: url(#linear-gradient-18);
        filter: url(#outer-glow-4);
      }

      .cls-27 {
        filter: url(#drop-shadow-13);
      }

      .cls-27, .cls-28 {
        fill: #00c853;
      }

      .cls-28 {
        filter: url(#drop-shadow-10);
      }

      .cls-29 {
        filter: url(#drop-shadow-11);
      }

      .cls-29, .cls-30 {
        fill: #2fcbff;
      }

      .cls-10 {
        fill: url(#linear-gradient-7);
      }

      .cls-11 {
        fill: url(#linear-gradient-10);
      }

      .cls-12 {
        fill: url(#linear-gradient-6);
      }

      .cls-31 {
        fill: url(#linear-gradient-23);
        filter: url(#outer-glow-9);
      }

      .cls-13 {
        fill: url(#linear-gradient);
      }

      .cls-32 {
        filter: url(#drop-shadow-3);
      }

      .cls-14 {
        fill: url(#linear-gradient-17);
      }

      .cls-22 {
        filter: url(#drop-shadow-15);
      }

      .cls-15 {
        fill: url(#linear-gradient-12);
      }

      .cls-16 {
        fill: url(#linear-gradient-14);
      }

      .cls-30 {
        filter: url(#drop-shadow-14);
      }

      .cls-33 {
        fill: url(#linear-gradient-21);
        filter: url(#outer-glow-7);
      }

      .cls-17 {
        fill: url(#linear-gradient-16);
      }
    </style>
    <filter id="drop-shadow-1" x="661.44" y="273.12" width="611.04" height="183.6" filterUnits="userSpaceOnUse">
      <feOffset dx="7" dy="7"/>
      <feGaussianBlur result="blur" stdDeviation="10"/>
      <feFlood flood-color="#000" flood-opacity=".75"/>
      <feComposite in2="blur" operator="in"/>
      <feComposite in="SourceGraphic"/>
    </filter>
    <linearGradient id="linear-gradient" x1="722.73" y1="418.63" x2="722.73" y2="297.35" gradientUnits="userSpaceOnUse">
      <stop offset="0" stop-color="#ffd44d"/>
      <stop offset="1" stop-color="#ffb300"/>
    </linearGradient>
    <linearGradient id="linear-gradient-2" x1="807.61" y1="418.63" x2="807.61" y2="297.35" gradientUnits="userSpaceOnUse">
      <stop offset="0" stop-color="#ffd44d"/>
      <stop offset="1" stop-color="#ffb300"/>
    </linearGradient>
    <linearGradient id="linear-gradient-3" x1="896.63" y1="418.63" x2="896.63" y2="297.35" gradientUnits="userSpaceOnUse">
      <stop offset="0" stop-color="#ffd44d"/>
      <stop offset="1" stop-color="#ffb300"/>
    </linearGradient>
    <linearGradient id="linear-gradient-4" x1="960.61" y1="418.63" x2="960.61" y2="297.35" gradientUnits="userSpaceOnUse">
      <stop offset="0" stop-color="#ffd44d"/>
      <stop offset="1" stop-color="#ffb300"/>
    </linearGradient>
    <linearGradient id="linear-gradient-5" x1="1026.19" y1="418.63" x2="1026.19" y2="297.35" gradientUnits="userSpaceOnUse">
      <stop offset="0" stop-color="#ffd44d"/>
      <stop offset="1" stop-color="#ffb300"/>
    </linearGradient>
    <linearGradient id="linear-gradient-6" x1="1116.45" y1="418.63" x2="1116.45" y2="297.35" gradientUnits="userSpaceOnUse">
      <stop offset="0" stop-color="#ffd44d"/>
      <stop offset="1" stop-color="#ffb300"/>
    </linearGradient>
    <linearGradient id="linear-gradient-7" x1="1199.39" y1="418.63" x2="1199.39" y2="297.35" gradientUnits="userSpaceOnUse">
      <stop offset="0" stop-color="#ffd44d"/>
      <stop offset="1" stop-color="#ffb300"/>
    </linearGradient>
    <filter id="drop-shadow-2" x="740.88" y="445.2" width="457.68" height="184.8" filterUnits="userSpaceOnUse">
      <feOffset dx="7" dy="7"/>
      <feGaussianBlur result="blur-2" stdDeviation="10"/>
      <feFlood flood-color="#000" flood-opacity=".75"/>
      <feComposite in2="blur-2" operator="in"/>
      <feComposite in="SourceGraphic"/>
    </filter>
    <linearGradient id="linear-gradient-8" x1="804.17" y1="579.49" x2="804.17" y2="458.21" gradientUnits="userSpaceOnUse">
      <stop offset="0" stop-color="#8eebff"/>
      <stop offset="1" stop-color="#2fcbff"/>
    </linearGradient>
    <linearGradient id="linear-gradient-9" x1="886.4" y1="579.49" x2="886.4" y2="458.21" gradientUnits="userSpaceOnUse">
      <stop offset="0" stop-color="#8eebff"/>
      <stop offset="1" stop-color="#2fcbff"/>
    </linearGradient>
    <linearGradient id="linear-gradient-10" x1="975.16" y1="580.9" x2="975.16" y2="458.21" gradientUnits="userSpaceOnUse">
      <stop offset="0" stop-color="#8eebff"/>
      <stop offset="1" stop-color="#2fcbff"/>
    </linearGradient>
    <linearGradient id="linear-gradient-11" x1="1056.42" y1="579.49" x2="1056.42" y2="458.21" gradientUnits="userSpaceOnUse">
      <stop offset="0" stop-color="#8eebff"/>
      <stop offset="1" stop-color="#2fcbff"/>
    </linearGradient>
    <linearGradient id="linear-gradient-12" x1="1123.41" y1="579.49" x2="1123.41" y2="458.21" gradientUnits="userSpaceOnUse">
      <stop offset="0" stop-color="#8eebff"/>
      <stop offset="1" stop-color="#2fcbff"/>
    </linearGradient>
    <filter id="drop-shadow-3" x="743.28" y="615.6" width="458.16" height="205.2" filterUnits="userSpaceOnUse">
      <feOffset dx="7" dy="7"/>
      <feGaussianBlur result="blur-3" stdDeviation="10"/>
      <feFlood flood-color="#000" flood-opacity=".75"/>
      <feComposite in2="blur-3" operator="in"/>
      <feComposite in="SourceGraphic"/>
    </filter>
    <linearGradient id="linear-gradient-13" x1="806.46" y1="771.63" x2="806.46" y2="628.67" gradientUnits="userSpaceOnUse">
      <stop offset="0" stop-color="#5cff9a"/>
      <stop offset="1" stop-color="#00c853"/>
    </linearGradient>
    <linearGradient id="linear-gradient-14" x1="892.49" y1="752.77" x2="892.49" y2="630.08" gradientUnits="userSpaceOnUse">
      <stop offset="0" stop-color="#5cff9a"/>
      <stop offset="1" stop-color="#00c853"/>
    </linearGradient>
    <linearGradient id="linear-gradient-15" x1="975.69" y1="751.36" x2="975.69" y2="630.08" gradientUnits="userSpaceOnUse">
      <stop offset="0" stop-color="#5cff9a"/>
      <stop offset="1" stop-color="#00c853"/>
    </linearGradient>
    <linearGradient id="linear-gradient-16" x1="1050.43" y1="752.77" x2="1050.43" y2="628.67" gradientUnits="userSpaceOnUse">
      <stop offset="0" stop-color="#5cff9a"/>
      <stop offset="1" stop-color="#00c853"/>
    </linearGradient>
    <linearGradient id="linear-gradient-17" x1="1126.23" y1="751.36" x2="1126.23" y2="630.08" gradientUnits="userSpaceOnUse">
      <stop offset="0" stop-color="#5cff9a"/>
      <stop offset="1" stop-color="#00c853"/>
    </linearGradient>
    <linearGradient id="linear-gradient-18" x1="1304.1" y1="357.99" x2="1372.04" y2="357.99" xlink:href="#linear-gradient"/>
    <filter id="outer-glow-4" x="1285.92" y="306" width="104.16" height="104.16" filterUnits="userSpaceOnUse">
      <feOffset dx="0" dy="0"/>
      <feGaussianBlur result="blur-4" stdDeviation="6"/>
      <feFlood flood-color="#c9a23f" flood-opacity=".65"/>
      <feComposite in2="blur-4" operator="in"/>
      <feComposite in="SourceGraphic"/>
    </filter>
    <linearGradient id="linear-gradient-19" x1="547.96" y1="357.99" x2="615.9" y2="357.99" xlink:href="#linear-gradient"/>
    <filter id="outer-glow-5" x="529.92" y="306" width="104.16" height="104.16" filterUnits="userSpaceOnUse">
      <feOffset dx="0" dy="0"/>
      <feGaussianBlur result="blur-5" stdDeviation="6"/>
      <feFlood flood-color="#c9a23f" flood-opacity=".65"/>
      <feComposite in2="blur-5" operator="in"/>
      <feComposite in="SourceGraphic"/>
    </filter>
    <linearGradient id="linear-gradient-20" x1="639.99" y1="518.85" x2="707.92" y2="518.85" xlink:href="#linear-gradient-8"/>
    <filter id="outer-glow-6" x="623.76" y="477.84" width="104.16" height="104.16" filterUnits="userSpaceOnUse">
      <feOffset dx="0" dy="0"/>
      <feGaussianBlur result="blur-6" stdDeviation="6"/>
      <feFlood flood-color="#2fcbff" flood-opacity=".65"/>
      <feComposite in2="blur-6" operator="in"/>
      <feComposite in="SourceGraphic"/>
    </filter>
    <linearGradient id="linear-gradient-21" x1="1213.84" y1="518.85" x2="1281.78" y2="518.85" xlink:href="#linear-gradient-8"/>
    <filter id="outer-glow-7" x="1197.6" y="477.84" width="104.16" height="104.16" filterUnits="userSpaceOnUse">
      <feOffset dx="0" dy="0"/>
      <feGaussianBlur result="blur-7" stdDeviation="6"/>
      <feFlood flood-color="#2fcbff" flood-opacity=".65"/>
      <feComposite in2="blur-7" operator="in"/>
      <feComposite in="SourceGraphic"/>
    </filter>
    <linearGradient id="linear-gradient-22" x1="639.99" y1="690.72" x2="707.92" y2="690.72" xlink:href="#linear-gradient-13"/>
    <filter id="outer-glow-8" x="623.76" y="649.68" width="104.16" height="104.16" filterUnits="userSpaceOnUse">
      <feOffset dx="0" dy="0"/>
      <feGaussianBlur result="blur-8" stdDeviation="6"/>
      <feFlood flood-color="#00c853" flood-opacity=".65"/>
      <feComposite in2="blur-8" operator="in"/>
      <feComposite in="SourceGraphic"/>
    </filter>
    <linearGradient id="linear-gradient-23" x1="1213.84" y1="690.72" x2="1281.78" y2="690.72" xlink:href="#linear-gradient-13"/>
    <filter id="outer-glow-9" x="1197.6" y="649.68" width="104.16" height="104.16" filterUnits="userSpaceOnUse">
      <feOffset dx="0" dy="0"/>
      <feGaussianBlur result="blur-9" stdDeviation="6"/>
      <feFlood flood-color="#00c853" flood-opacity=".65"/>
      <feComposite in2="blur-9" operator="in"/>
      <feComposite in="SourceGraphic"/>
    </filter>
    <filter id="drop-shadow-10" x="-23.04" y="-30" width="597.12" height="1140" filterUnits="userSpaceOnUse">
      <feOffset dx="7" dy="0"/>
      <feGaussianBlur result="blur-10" stdDeviation="10"/>
      <feFlood flood-color="#000" flood-opacity=".75"/>
      <feComposite in2="blur-10" operator="in"/>
      <feComposite in="SourceGraphic"/>
    </filter>
    <filter id="drop-shadow-11" x="-23.04" y="295.92" width="534.72" height="814.08" filterUnits="userSpaceOnUse">
      <feOffset dx="7" dy="0"/>
      <feGaussianBlur result="blur-11" stdDeviation="10"/>
      <feFlood flood-color="#000" flood-opacity=".75"/>
      <feComposite in2="blur-11" operator="in"/>
      <feComposite in="SourceGraphic"/>
    </filter>
    <filter id="drop-shadow-12" x="-23.04" y="619.92" width="472.56" height="490.08" filterUnits="userSpaceOnUse">
      <feOffset dx="7" dy="0"/>
      <feGaussianBlur result="blur-12" stdDeviation="10"/>
      <feFlood flood-color="#000" flood-opacity=".75"/>
      <feComposite in2="blur-12" operator="in"/>
      <feComposite in="SourceGraphic"/>
    </filter>
    <filter id="drop-shadow-13" x="1345.92" y="-30" width="597.12" height="1140" filterUnits="userSpaceOnUse">
      <feOffset dx="-7" dy="0"/>
      <feGaussianBlur result="blur-13" stdDeviation="10"/>
      <feFlood flood-color="#000" flood-opacity=".75"/>
      <feComposite in2="blur-13" operator="in"/>
      <feComposite in="SourceGraphic"/>
    </filter>
    <filter id="drop-shadow-14" x="1408.32" y="295.92" width="534.72" height="814.08" filterUnits="userSpaceOnUse">
      <feOffset dx="-7" dy="0"/>
      <feGaussianBlur result="blur-14" stdDeviation="10"/>
      <feFlood flood-color="#000" flood-opacity=".75"/>
      <feComposite in2="blur-14" operator="in"/>
      <feComposite in="SourceGraphic"/>
    </filter>
    <filter id="drop-shadow-15" x="1470.48" y="619.92" width="472.56" height="490.08" filterUnits="userSpaceOnUse">
      <feOffset dx="-7" dy="0"/>
      <feGaussianBlur result="blur-15" stdDeviation="10"/>
      <feFlood flood-color="#000" flood-opacity=".75"/>
      <feComposite in2="blur-15" operator="in"/>
      <feComposite in="SourceGraphic"/>
    </filter>
  </defs>
  <rect class="cls-20" width="1920" height="1080"/>
  <g>
    <g class="cls-25">
      <path class="cls-13" d="M734.72,418.63l-11.81-42.31h-13.04v42.31h-24.33v-121.28h40.9c8.7,0,15.25,1.47,19.66,4.41,4.41,2.94,7.37,7.17,8.9,12.69,1.53,5.53,2.29,12.93,2.29,22.21s-.79,16.1-2.38,21.86c-1.59,5.76-4.79,10.11-9.61,13.04l14.63,47.07h-25.21ZM728.9,354.02c1.64-.88,2.73-2.53,3.26-4.94.53-2.41.79-6.49.79-12.25s-.26-9.63-.79-11.99c-.53-2.35-1.62-3.97-3.26-4.85-1.65-.88-4.41-1.32-8.29-1.32h-10.75v36.67h10.75c3.88,0,6.64-.44,8.29-1.32Z"/>
      <path class="cls-8" d="M825.68,418.63l-4.76-24.86h-27.15l-4.76,24.86h-24.15l25.03-121.28h35.43l25.03,121.28h-24.68ZM807.87,320.27h-1.06l-9.52,52.53h19.92l-9.34-52.53Z"/>
      <path class="cls-3" d="M860.93,297.35h32.79c12.46,0,21.36,1.74,26.71,5.2,5.35,3.47,8.67,9.05,9.96,16.75,1.29,7.7,1.94,20.6,1.94,38.69s-.65,31-1.94,38.69c-1.29,7.7-4.61,13.28-9.96,16.75-5.35,3.47-14.25,5.2-26.71,5.2h-32.79v-121.28ZM893.37,397.3c5.17,0,8.67-.62,10.49-1.85,1.82-1.23,3-4.32,3.53-9.25.53-4.94.79-14.34.79-28.21s-.29-23.12-.88-28.12c-.59-4.99-1.76-8.11-3.53-9.34-1.76-1.23-5.23-1.85-10.4-1.85h-8.29v78.62h8.29Z"/>
      <path class="cls-4" d="M948.54,418.63v-121.28h24.15v121.28h-24.15Z"/>
      <path class="cls-6" d="M1044.26,418.63l-4.76-24.86h-27.15l-4.76,24.86h-24.15l25.03-121.28h35.43l25.03,121.28h-24.68ZM1026.46,320.27h-1.06l-9.52,52.53h19.92l-9.34-52.53Z"/>
      <path class="cls-12" d="M1131.52,418.63l-28.21-66.46h-.71v66.46h-23.09v-121.28h23.45l26.27,61.35h.88v-61.35h23.27v121.28h-21.86Z"/>
      <path class="cls-10" d="M1187.22,418.63v-99.25h-22.92v-22.04h70.16v22.04h-22.92v99.25h-24.33Z"/>
    </g>
    <g class="cls-19">
      <path class="cls-9" d="M788.48,590.5l-23.27-121.28h24.68l15.87,95.9h1.59l15.34-95.9h24.33l-23.27,121.28h-35.26Z"/>
      <path class="cls-2" d="M906.41,590.5l-4.76-24.86h-27.15l-4.76,24.86h-24.15l25.03-121.28h35.43l25.03,121.28h-24.68ZM888.61,492.14h-1.06l-9.52,52.53h19.92l-9.34-52.53Z"/>
      <path class="cls-11" d="M1013.24,469.22v67.52c0,15.98-.68,27.59-2.03,34.82-1.35,7.23-4.53,12.43-9.52,15.6-5,3.17-13.19,4.76-24.59,4.76s-19.6-1.59-24.59-4.76c-5-3.17-8.17-8.37-9.52-15.6-1.35-7.23-2.03-18.83-2.03-34.82v-67.52h24.15v75.62c0,8.58.2,14.48.62,17.72.41,3.23,1.41,5.38,3,6.43s4.38,1.59,8.37,1.59,6.76-.53,8.29-1.59c1.53-1.06,2.5-3.17,2.91-6.35.41-3.17.62-9.11.62-17.81v-75.62h24.33Z"/>
      <path class="cls-1" d="M1030.86,590.5v-121.28h24.33v99.25h30.67v22.04h-55Z"/>
      <path class="cls-15" d="M1113.19,590.5v-99.25h-22.92v-22.04h70.16v22.04h-22.92v99.25h-24.33Z"/>
    </g>
    <g class="cls-32">
      <path class="cls-5" d="M812.81,763.44c-3.06.23-5.58.35-7.58.35-12.22,0-20.92-1.79-26.09-5.38-5.17-3.58-8.4-9.31-9.7-17.19-1.29-7.87-1.94-21.04-1.94-39.49s.64-31.61,1.94-39.49c1.29-7.87,4.52-13.6,9.7-17.19,5.17-3.58,13.87-5.38,26.09-5.38s20.77,1.79,26,5.38c5.23,3.59,8.49,9.34,9.78,17.28,1.29,7.93,1.94,21.06,1.94,39.4,0,16.57-.56,28.73-1.67,36.49-1.12,7.76-3.73,13.69-7.84,17.8l15.87,25.74v.88h-25.56l-10.93-19.21ZM814.75,740.52c1.64-1.29,2.7-4.5,3.17-9.61.47-5.11.71-14.84.71-29.17s-.24-24.06-.71-29.18c-.47-5.11-1.53-8.31-3.17-9.61-1.65-1.29-4.82-1.94-9.52-1.94s-7.88.65-9.52,1.94c-1.65,1.29-2.71,4.47-3.17,9.52-.47,5.05-.71,14.81-.71,29.26s.23,24.21.71,29.26c.47,5.05,1.53,8.23,3.17,9.52,1.64,1.29,4.82,1.94,9.52,1.94s7.87-.64,9.52-1.94Z"/>
      <path class="cls-16" d="M930.56,641.1v67.52c0,15.98-.68,27.59-2.03,34.81-1.35,7.23-4.53,12.43-9.52,15.6-5,3.17-13.19,4.76-24.59,4.76s-19.6-1.59-24.59-4.76c-5-3.17-8.17-8.37-9.52-15.6-1.35-7.23-2.03-18.83-2.03-34.81v-67.52h24.15v75.62c0,8.58.2,14.49.62,17.72.41,3.23,1.41,5.38,3,6.44,1.59,1.06,4.38,1.59,8.37,1.59s6.76-.53,8.29-1.59c1.53-1.06,2.5-3.17,2.91-6.35.41-3.17.62-9.11.62-17.8v-75.62h24.33Z"/>
      <path class="cls-7" d="M948.19,762.38v-121.28h58.88v21.33h-34.55v28.03h29.79v21.33h-29.79v29.26h34.55v21.33h-58.88Z"/>
      <path class="cls-17" d="M1036.06,763c-5.82-.53-10.96-1.26-15.42-2.21v-19.74c11.99.94,20.27,1.41,24.86,1.41,4.11,0,7.23-.23,9.34-.71,2.12-.47,3.7-1.29,4.76-2.47.94-.94,1.56-2.26,1.85-3.97.29-1.7.44-4.14.44-7.31,0-4.35-.24-7.43-.71-9.26-.47-1.82-1.44-3.17-2.91-4.05-1.47-.88-4.03-1.68-7.67-2.38l-16.57-3c-5.88-1.06-9.93-4.29-12.16-9.7-2.23-5.4-3.35-13.22-3.35-23.45s1.44-17.63,4.32-22.92c2.88-5.29,6.84-8.87,11.9-10.75,5.05-1.88,11.46-2.82,19.21-2.82,5.4,0,10.6.35,15.6,1.06,4.99.71,9.08,1.41,12.25,2.12v19.74c-6.35-1.06-13.46-1.59-21.33-1.59-4.23,0-7.49.18-9.78.53-2.29.35-3.97,1-5.02,1.94-1.29.94-2.12,2.29-2.47,4.05-.35,1.76-.53,4.35-.53,7.76,0,3.64.2,6.29.62,7.93.41,1.65,1.15,2.82,2.2,3.53s2.88,1.29,5.46,1.76l15.51,2.82c4.11.59,7.61,1.85,10.49,3.79,2.88,1.94,5.14,5.14,6.79,9.61,1.64,4.7,2.47,11.34,2.47,19.92,0,11.17-1.35,19.57-4.05,25.21-2.71,5.64-6.44,9.37-11.19,11.19-4.76,1.82-11.02,2.73-18.78,2.73-4.94,0-10.31-.27-16.13-.79Z"/>
      <path class="cls-14" d="M1116.01,762.38v-99.25h-22.92v-22.04h70.16v22.04h-22.92v99.25h-24.33Z"/>
    </g>
    <circle class="cls-26" cx="1338.07" cy="357.99" r="33.97"/>
    <circle class="cls-24" cx="581.93" cy="357.99" r="33.97"/>
    <circle class="cls-18" cx="675.89" cy="529.86" r="33.97"/>
    <circle class="cls-33" cx="1249.75" cy="529.86" r="33.97"/>
    <circle class="cls-23" cx="675.89" cy="701.74" r="33.97"/>
    <circle class="cls-31" cx="1249.75" cy="701.74" r="33.97"/>
  </g>
  <polygon class="cls-28" points="0 0 329.83 0 537.04 1080 0 1080 0 0"/>
  <polygon class="cls-29" points="474.49 1080 329.83 325.99 0 325.99 0 1080 474.49 1080"/>
  <polygon class="cls-21" points="412.33 1080 329.83 650 0 650 0 1080 412.33 1080"/>
  <polygon class="cls-27" points="1920 0 1590.17 0 1382.96 1080 1920 1080 1920 0"/>
  <polygon class="cls-30" points="1445.51 1080 1590.17 325.99 1920 325.99 1920 1080 1445.51 1080"/>
  <polygon class="cls-22" points="1507.67 1080 1590.17 650 1920 650 1920 1080 1507.67 1080"/>
</svg>